# xmcd CD database file
#
# Track frame offsets:
#	182
#	16202
#	37615
#	60622
#	77687
#	97617
#	112235
#	130290
#	149837
#	169700
#	189435
#	204680
#
# Disc length: 2958 seconds
#
# Revision: 2
# Processed by: cddbd v1.4PL0 Copyright (c) Steve Scherf et al.
# Submitted via: CDex 1.51
#
DISCID=9d0b8c0c
DTITLE=Danyel Gérard - Good or bad
DYEAR=1990
DGENRE=Variétés françaises
TTITLE0=Man's land
TTITLE1=L'homme arrive
TTITLE2=Ils pleurent
TTITLE3=Good or bad "on s'en sortira"
TTITLE4=No man's land
TTITLE5=Fragile en dedans
TTITLE6=Tombe l'eau
TTITLE7=Ca n'est plus comme avant
TTITLE8=Manipule
TTITLE9=En regardant le ciel "combien de temps encore"
TTITLE10=Des millions de pas
TTITLE11=Good or bad
EXTD=YEAR: 1990
EXTT0=
EXTT1=
EXTT2=
EXTT3=
EXTT4=
EXTT5=
EXTT6=
EXTT7=
EXTT8=
EXTT9=
EXTT10=
EXTT11=
PLAYORDER=
